<svg width="24" height="25" viewBox="0 0 24 25" fill="none" xmlns="http://www.w3.org/2000/svg">
<path d="M12 2.4646C6.20138 2.4646 1.5 7.23959 1.5 13.129C1.5 18.1262 4.888 22.3075 9.4555 23.4646C9.4065 23.3206 9.375 23.1536 9.375 22.9465V21.1238C8.94888 21.1238 8.23487 21.1238 8.0555 21.1238C7.33712 21.1238 6.69837 20.8101 6.38862 20.2271C6.04475 19.5792 5.98525 18.5883 5.133 17.9822C4.88012 17.7805 5.07262 17.5503 5.364 17.5814C5.90212 17.736 6.34837 18.1111 6.76837 18.6674C7.18662 19.2246 7.3835 19.3508 8.16487 19.3508C8.54375 19.3508 9.11075 19.3286 9.6445 19.2433C9.9315 18.503 10.4276 17.8213 11.034 17.4996C7.5375 17.1344 5.86888 15.3676 5.86888 12.969C5.86888 11.9364 6.302 10.9375 7.03788 10.0959C6.79638 9.26049 6.49275 7.55686 7.13063 6.9081C8.70388 6.9081 9.655 7.94433 9.88338 8.22427C10.6674 7.95144 11.5284 7.7968 12.4331 7.7968C13.3396 7.7968 14.2041 7.95144 14.9899 8.22605C15.2156 7.94788 16.1676 6.9081 17.7444 6.9081C18.3849 7.55774 18.0777 9.26849 17.8336 10.1021C18.5651 10.9419 18.9956 11.9382 18.9956 12.969C18.9956 15.3659 17.3296 17.1317 13.8384 17.4988C14.7991 18.008 15.5 19.4388 15.5 20.5168V22.9465C15.5 23.0389 15.4799 23.1056 15.4694 23.1847C19.5609 21.7281 22.5 17.7822 22.5 13.129C22.5 7.23959 17.7986 2.4646 12 2.4646Z" fill="white"/>
</svg>
