<svg width="284" height="35" viewBox="0 0 284 35" fill="none" xmlns="http://www.w3.org/2000/svg">
<path d="M20.124 13.708V6.976C20.124 6.304 20.04 5.788 19.872 5.428C19.704 5.068 19.476 4.792 19.188 4.6C18.9 4.432 18.552 4.336 18.144 4.312C17.76 4.264 17.328 4.24 16.848 4.24V2.692C17.808 2.716 18.84 2.74 19.944 2.764C21.048 2.764 22.032 2.764 22.896 2.764C23.28 2.764 23.7 2.764 24.156 2.764C24.636 2.74 25.116 2.728 25.596 2.728C26.076 2.728 26.556 2.728 27.036 2.728C27.516 2.704 27.96 2.692 28.368 2.692V4.24C27.888 4.24 27.444 4.264 27.036 4.312C26.652 4.336 26.316 4.432 26.028 4.6C25.74 4.792 25.512 5.068 25.344 5.428C25.176 5.788 25.092 6.304 25.092 6.976V24.796C25.092 25.468 25.176 25.984 25.344 26.344C25.512 26.704 25.74 26.968 26.028 27.136C26.316 27.328 26.652 27.448 27.036 27.496C27.444 27.52 27.888 27.532 28.368 27.532V29.08C27.552 29.056 26.616 29.032 25.56 29.008C24.528 29.008 23.604 29.008 22.788 29.008C21.948 29.008 20.976 29.008 19.872 29.008C18.792 29.032 17.784 29.056 16.848 29.08V27.532C17.328 27.532 17.76 27.52 18.144 27.496C18.552 27.448 18.9 27.328 19.188 27.136C19.476 26.968 19.704 26.704 19.872 26.344C20.04 25.984 20.124 25.468 20.124 24.796V16.372H9.18V24.796C9.18 25.468 9.264 25.984 9.432 26.344C9.6 26.704 9.828 26.968 10.116 27.136C10.404 27.328 10.74 27.448 11.124 27.496C11.532 27.52 11.976 27.532 12.456 27.532V29.08C11.592 29.08 10.644 29.068 9.612 29.044C8.58 29.02 7.668 29.008 6.876 29.008C6.012 29.008 5.016 29.008 3.888 29.008C2.784 29.032 1.8 29.056 0.936 29.08V27.532C1.416 27.532 1.848 27.52 2.232 27.496C2.64 27.448 2.988 27.328 3.276 27.136C3.564 26.968 3.792 26.704 3.96 26.344C4.128 25.984 4.212 25.468 4.212 24.796V6.976C4.212 6.304 4.128 5.788 3.96 5.428C3.792 5.068 3.564 4.792 3.276 4.6C2.988 4.432 2.64 4.336 2.232 4.312C1.848 4.264 1.416 4.24 0.936 4.24V2.692C1.368 2.692 1.824 2.704 2.304 2.728C2.808 2.728 3.312 2.728 3.816 2.728C4.32 2.752 4.812 2.764 5.292 2.764C5.772 2.764 6.216 2.764 6.624 2.764C7.032 2.764 7.488 2.764 7.992 2.764C8.496 2.764 9.012 2.752 9.54 2.728C10.044 2.728 10.548 2.728 11.052 2.728C11.556 2.704 12.024 2.692 12.456 2.692V4.24C11.976 4.24 11.532 4.264 11.124 4.312C10.74 4.336 10.404 4.432 10.116 4.6C9.828 4.792 9.6 5.068 9.432 5.428C9.264 5.788 9.18 6.304 9.18 6.976V13.708H20.124ZM54.5203 4.24C53.8003 4.24 53.2483 4.348 52.8643 4.564C52.4803 4.756 52.2043 5.08 52.0363 5.536C51.8443 6.016 51.7363 6.652 51.7123 7.444C51.6883 8.212 51.6763 9.172 51.6763 10.324V19.72C51.6763 21.112 51.4963 22.42 51.1363 23.644C50.8003 24.844 50.2603 25.888 49.5163 26.776C48.7723 27.664 47.8123 28.36 46.6363 28.864C45.4843 29.392 44.0923 29.656 42.4603 29.656C39.3883 29.656 37.0483 28.792 35.4403 27.064C33.8323 25.312 33.0283 22.708 33.0283 19.252V6.976C33.0283 6.304 32.9443 5.788 32.7763 5.428C32.6083 5.068 32.3803 4.792 32.0923 4.6C31.8043 4.432 31.4563 4.336 31.0483 4.312C30.6643 4.264 30.2323 4.24 29.7523 4.24V2.692C30.1843 2.692 30.6403 2.704 31.1203 2.728C31.6243 2.728 32.1283 2.728 32.6323 2.728C33.1363 2.752 33.6283 2.764 34.1083 2.764C34.5883 2.764 35.0323 2.764 35.4403 2.764C35.8483 2.764 36.3043 2.764 36.8083 2.764C37.3123 2.764 37.8283 2.752 38.3563 2.728C38.8603 2.728 39.3643 2.728 39.8683 2.728C40.3723 2.704 40.8403 2.692 41.2723 2.692V4.24C40.7923 4.24 40.3483 4.264 39.9403 4.312C39.5563 4.336 39.2203 4.432 38.9323 4.6C38.6443 4.792 38.4163 5.068 38.2483 5.428C38.0803 5.788 37.9963 6.304 37.9963 6.976V18.316C37.9963 19.54 38.0923 20.68 38.2843 21.736C38.4763 22.792 38.7883 23.704 39.2203 24.472C39.6523 25.264 40.2043 25.876 40.8763 26.308C41.5723 26.74 42.4123 26.956 43.3963 26.956C44.5003 26.956 45.4003 26.728 46.0963 26.272C46.7923 25.792 47.3323 25.192 47.7163 24.472C48.1003 23.776 48.3523 23.008 48.4723 22.168C48.6163 21.304 48.6883 20.488 48.6883 19.72V10.432C48.6883 8.896 48.6523 7.708 48.5803 6.868C48.5323 6.028 48.4003 5.416 48.1843 5.032C47.9443 4.672 47.5963 4.456 47.1403 4.384C46.6843 4.312 46.0603 4.264 45.2683 4.24V2.692C46.0363 2.716 46.8763 2.74 47.7883 2.764C48.7243 2.764 49.5763 2.764 50.3443 2.764C50.9683 2.764 51.6643 2.752 52.4323 2.728C53.2003 2.704 53.8963 2.692 54.5203 2.692V4.24ZM64.4892 24.796C64.4892 25.468 64.5732 25.984 64.7412 26.344C64.9092 26.704 65.1372 26.968 65.4252 27.136C65.7132 27.328 66.0492 27.448 66.4332 27.496C66.8412 27.52 67.2852 27.532 67.7652 27.532V29.08C67.3332 29.08 66.8292 29.068 66.2532 29.044C65.6772 29.044 65.0892 29.044 64.4892 29.044C63.8652 29.02 63.2652 29.008 62.6892 29.008C62.1132 29.008 61.6212 29.008 61.2132 29.008C60.3972 29.008 59.5572 29.008 58.6932 29.008C57.8532 29.032 56.9892 29.056 56.1012 29.08V27.532C56.8932 27.532 57.5052 27.484 57.9372 27.388C58.3932 27.292 58.7412 27.088 58.9812 26.776C59.2212 26.464 59.3652 26.032 59.4132 25.48C59.4852 24.904 59.5212 24.16 59.5212 23.248V7.624C59.5212 6.856 59.4732 6.256 59.3772 5.824C59.3052 5.368 59.1492 5.032 58.9092 4.816C58.6452 4.6 58.2852 4.456 57.8292 4.384C57.3972 4.312 56.8212 4.264 56.1012 4.24V2.692C57.3972 2.692 58.7772 2.704 60.2412 2.728C61.7292 2.752 63.1332 2.764 64.4532 2.764C66.1092 2.764 67.7532 2.764 69.3852 2.764C71.0172 2.764 72.6372 2.74 74.2452 2.692L74.4612 8.02L73.0932 8.164C73.0212 7.588 72.8652 7.096 72.6252 6.688C72.4092 6.28 72.0972 5.956 71.6892 5.716C71.2572 5.476 70.7292 5.308 70.1052 5.212C69.4812 5.092 68.7252 5.032 67.8372 5.032H64.4892V13.888H67.1172C67.8612 13.888 68.4492 13.864 68.8812 13.816C69.3132 13.744 69.6492 13.612 69.8892 13.42C70.1292 13.228 70.3092 12.976 70.4292 12.664C70.5492 12.328 70.6692 11.884 70.7892 11.332H72.1572C72.1332 11.5 72.1092 11.752 72.0852 12.088C72.0852 12.4 72.0852 12.748 72.0852 13.132C72.0612 13.516 72.0372 13.912 72.0132 14.32C72.0132 14.728 72.0132 15.1 72.0132 15.436C72.0132 16.06 72.0252 16.756 72.0492 17.524C72.0732 18.292 72.1092 18.928 72.1572 19.432H70.8972C70.8012 18.88 70.7052 18.424 70.6092 18.064C70.5132 17.68 70.3572 17.38 70.1412 17.164C69.9012 16.948 69.5532 16.792 69.0972 16.696C68.6652 16.6 68.0532 16.552 67.2612 16.552H64.4892V24.796ZM77.2068 22.528L78.5028 22.42C78.8148 24.028 79.5348 25.252 80.6628 26.092C81.8148 26.908 83.1468 27.316 84.6588 27.316C85.3308 27.316 85.9908 27.244 86.6388 27.1C87.3108 26.956 87.9108 26.728 88.4388 26.416C88.9428 26.104 89.3508 25.708 89.6628 25.228C89.9748 24.724 90.1308 24.124 90.1308 23.428C90.1308 22.348 89.8428 21.484 89.2668 20.836C88.6908 20.188 87.9708 19.612 87.1068 19.108C86.2188 18.628 85.2708 18.16 84.2628 17.704C83.2548 17.248 82.3188 16.684 81.4548 16.012C80.5668 15.34 79.8348 14.5 79.2588 13.492C78.6828 12.484 78.3948 11.164 78.3948 9.532C78.3948 8.14 78.6108 6.976 79.0428 6.04C79.4988 5.08 80.1228 4.312 80.9148 3.736C81.7068 3.16 82.6428 2.752 83.7228 2.512C84.8268 2.248 86.0388 2.116 87.3588 2.116C88.4628 2.116 89.5668 2.188 90.6708 2.332C91.7988 2.452 92.8668 2.512 93.8748 2.512L94.2708 7.948L92.9748 8.02C92.5428 6.628 91.8828 5.692 90.9948 5.212C90.1308 4.708 89.0508 4.456 87.7548 4.456C86.2428 4.456 85.0188 4.816 84.0828 5.536C83.1708 6.232 82.7148 7.108 82.7148 8.164C82.7148 9.268 83.0148 10.156 83.6148 10.828C84.2148 11.5 84.9708 12.076 85.8828 12.556C86.7708 13.06 87.7428 13.54 88.7988 13.996C89.8548 14.452 90.8388 15.004 91.7508 15.652C92.6388 16.324 93.3828 17.152 93.9828 18.136C94.5828 19.12 94.8828 20.404 94.8828 21.988C94.8828 23.428 94.6188 24.64 94.0908 25.624C93.5628 26.584 92.8548 27.364 91.9668 27.964C91.0788 28.564 90.0468 28.996 88.8708 29.26C87.6948 29.524 86.4588 29.656 85.1628 29.656C84.5148 29.656 83.8308 29.608 83.1108 29.512C82.4148 29.416 81.7428 29.308 81.0948 29.188C80.4228 29.068 79.7868 28.936 79.1868 28.792C78.6108 28.648 78.1068 28.528 77.6748 28.432L77.2068 22.528ZM127.384 22.564C126.544 22.564 125.812 22.924 125.188 23.644C124.588 24.364 124.288 25.276 124.288 26.38C124.288 27.484 124.588 28.396 125.188 29.116C125.812 29.836 126.544 30.196 127.384 30.196C128.248 30.196 128.98 29.836 129.58 29.116C130.18 28.396 130.48 27.484 130.48 26.38C130.48 25.276 130.18 24.364 129.58 23.644C128.98 22.924 128.248 22.564 127.384 22.564ZM127.384 18.604C129.64 18.604 131.56 19.372 133.144 20.908C134.752 22.42 135.556 24.244 135.556 26.38C135.556 28.516 134.752 30.34 133.144 31.852C131.56 33.388 129.64 34.156 127.384 34.156C125.128 34.156 123.196 33.388 121.588 31.852C120.004 30.34 119.212 28.516 119.212 26.38C119.212 24.244 120.004 22.42 121.588 20.908C123.196 19.372 125.128 18.604 127.384 18.604ZM121.768 6.22H116.656V12.016C116.656 12.4 116.704 12.64 116.8 12.736C116.92 12.832 117.172 12.88 117.556 12.88H120.868C121.276 12.88 121.528 12.832 121.624 12.736C121.72 12.616 121.768 12.376 121.768 12.016V6.22ZM131.92 5.212V4.348C131.92 2.884 131.236 1.648 129.868 0.639998H137.068V18.316H131.92V14.32H126.844C126.7 15.184 126.352 15.82 125.8 16.228C125.272 16.636 124.516 16.84 123.532 16.84H114.892C113.788 16.84 112.948 16.552 112.372 15.976C111.796 15.376 111.508 14.452 111.508 13.204V5.608C111.508 4.288 110.824 3.172 109.456 2.26H126.556C126.676 2.26 126.76 2.296 126.808 2.368C126.88 2.44 126.916 2.536 126.916 2.656V5.212H131.92ZM131.92 10.72V8.812H126.916V10.72H131.92ZM170.221 33.76H165.649V3.916C165.649 2.692 165.181 1.612 164.245 0.675998V33.76H159.745V17.236H156.541C155.797 18.268 154.849 19.108 153.697 19.756C152.569 20.38 151.333 20.692 149.989 20.692C147.733 20.692 145.801 19.84 144.193 18.136C142.585 16.432 141.781 14.38 141.781 11.98C141.781 9.556 142.585 7.492 144.193 5.788C145.801 4.06 147.733 3.196 149.989 3.196C151.333 3.196 152.581 3.52 153.733 4.168C154.909 4.816 155.881 5.692 156.649 6.796H159.745V3.88C159.745 2.608 159.169 1.528 158.017 0.639998H170.221V33.76ZM153.193 11.98C153.193 10.588 152.893 9.436 152.293 8.524C151.693 7.612 150.925 7.156 149.989 7.156C149.077 7.156 148.321 7.612 147.721 8.524C147.121 9.436 146.821 10.588 146.821 11.98C146.821 13.372 147.121 14.524 147.721 15.436C148.321 16.348 149.077 16.804 149.989 16.804C150.925 16.804 151.693 16.348 152.293 15.436C152.893 14.524 153.193 13.372 153.193 11.98ZM159.745 13.492V10.576H158.089C158.137 10.816 158.161 11.056 158.161 11.296C158.185 11.512 158.197 11.74 158.197 11.98C158.197 12.22 158.185 12.472 158.161 12.736C158.137 12.976 158.101 13.228 158.053 13.492H159.745ZM183.61 9.964C183.61 10.996 183.862 11.872 184.366 12.592C184.894 13.288 185.542 13.636 186.31 13.636C187.054 13.636 187.69 13.288 188.218 12.592C188.746 11.872 189.01 10.996 189.01 9.964C189.01 8.932 188.746 8.068 188.218 7.372C187.69 6.652 187.054 6.292 186.31 6.292C185.542 6.292 184.894 6.652 184.366 7.372C183.862 8.068 183.61 8.932 183.61 9.964ZM178.534 9.964C178.534 7.828 179.29 6.016 180.802 4.528C182.314 3.016 184.15 2.26 186.31 2.26C188.47 2.26 190.306 3.016 191.818 4.528C193.33 6.016 194.086 7.828 194.086 9.964C194.086 12.1 193.33 13.924 191.818 15.436C190.306 16.924 188.47 17.668 186.31 17.668C184.15 17.668 182.314 16.924 180.802 15.436C179.29 13.924 178.534 12.1 178.534 9.964ZM197.83 24.832C197.23 25.024 196.522 25.156 195.706 25.228C194.914 25.276 193.906 25.3 192.682 25.3H175.87V21.448H194.05C194.89 21.448 195.622 21.412 196.246 21.34C196.87 21.244 197.398 21.112 197.83 20.944V4.348C197.83 2.884 197.146 1.648 195.778 0.639998H202.87V33.76H197.83V24.832ZM232.309 22.24V28.9C232.309 29.068 232.345 29.2 232.417 29.296C232.513 29.392 232.645 29.44 232.813 29.44H247.537V33.4H229.825C228.889 33.4 228.193 33.16 227.737 32.68C227.281 32.224 227.053 31.492 227.053 30.484V25.516C227.053 24.22 226.369 23.128 225.001 22.24H232.309ZM242.065 9.028V4.348C242.065 2.884 241.381 1.648 240.013 0.639998H247.213V24.4H242.065V13.096H236.269V9.028H242.065ZM227.053 6.364H221.401V2.404H238.141V6.364H232.453V7.084C232.453 8.572 232.669 9.916 233.101 11.116C233.533 12.292 234.085 13.324 234.757 14.212C235.549 15.244 236.437 16.048 237.421 16.624C238.429 17.2 239.353 17.536 240.193 17.632C240.313 17.656 240.373 17.704 240.373 17.776C240.373 17.824 240.349 17.872 240.301 17.92L237.385 20.8C236.689 20.68 235.945 20.416 235.153 20.008C234.361 19.576 233.605 19.06 232.885 18.46C232.261 17.932 231.697 17.356 231.193 16.732C230.689 16.108 230.293 15.46 230.005 14.788C229.957 14.668 229.873 14.608 229.753 14.608C229.633 14.584 229.561 14.644 229.537 14.788C229.273 15.484 228.889 16.144 228.385 16.768C227.881 17.392 227.329 17.968 226.729 18.496C226.009 19.096 225.241 19.6 224.425 20.008C223.633 20.416 222.865 20.68 222.121 20.8L219.241 17.92C219.217 17.848 219.205 17.788 219.205 17.74C219.205 17.692 219.241 17.656 219.313 17.632C220.225 17.536 221.221 17.152 222.301 16.48C223.405 15.808 224.353 14.86 225.145 13.636C225.721 12.796 226.177 11.836 226.513 10.756C226.873 9.652 227.053 8.428 227.053 7.084V6.364ZM283.786 10.9H279.322V18.28H274.174V16.084C273.55 16.324 272.818 16.492 271.978 16.588C271.162 16.66 270.118 16.696 268.846 16.696H257.362C255.994 16.696 254.962 16.336 254.266 15.616C253.594 14.896 253.258 13.768 253.258 12.232V5.932C253.258 4.636 252.574 3.544 251.206 2.656H269.314V6.616H258.406V12.016C258.406 12.256 258.466 12.436 258.586 12.556C258.706 12.676 258.862 12.736 259.054 12.736H270.178C271.09 12.736 271.858 12.688 272.482 12.592C273.13 12.472 273.694 12.328 274.174 12.16V4.348C274.174 2.884 273.49 1.648 272.122 0.639998H279.322V6.76H283.786V10.9ZM277.954 26.38C277.954 28.516 277.15 30.34 275.542 31.852C273.958 33.388 272.038 34.156 269.782 34.156C267.526 34.156 265.594 33.388 263.986 31.852C262.402 30.34 261.61 28.516 261.61 26.38C261.61 24.244 262.402 22.42 263.986 20.908C265.594 19.372 267.526 18.604 269.782 18.604C272.038 18.604 273.958 19.372 275.542 20.908C277.15 22.42 277.954 24.244 277.954 26.38ZM272.914 26.38C272.914 25.276 272.602 24.364 271.978 23.644C271.378 22.924 270.646 22.564 269.782 22.564C268.942 22.564 268.222 22.924 267.622 23.644C267.046 24.364 266.758 25.276 266.758 26.38C266.758 27.484 267.046 28.396 267.622 29.116C268.222 29.836 268.942 30.196 269.782 30.196C270.646 30.196 271.378 29.836 271.978 29.116C272.602 28.396 272.914 27.484 272.914 26.38Z" fill="#BB9868"/>
</svg>
